<?xml version="1.0" standalone="no"?>
<!DOCTYPE svg PUBLIC "-//W3C//DTD SVG 20010904//EN"
 "http://www.w3.org/TR/2001/REC-SVG-20010904/DTD/svg10.dtd">
<svg version="1.0" xmlns="http://www.w3.org/2000/svg"
 width="1000.000000pt" height="1000.000000pt" viewBox="0 0 1000.000000 1000.000000"
 preserveAspectRatio="xMidYMid meet">
<metadata>
Created by potrace 1.11, written by Peter Selinger 2001-2013
</metadata>
<g transform="translate(0.000000,1000.000000) scale(0.100000,-0.100000)"
fill="#000000" stroke="none">
<path d="M1073 9848 c-22 -24 -71 -72 -109 -106 -68 -63 -361 -340 -461 -437
-28 -27 -119 -115 -202 -194 -83 -79 -151 -151 -151 -160 0 -10 6 -26 14 -36
8 -11 12 -25 9 -32 -3 -7 4 -30 14 -50 11 -21 19 -46 17 -55 -1 -9 4 -22 12
-29 8 -6 14 -18 14 -25 0 -8 4 -22 10 -32 17 -30 43 -96 45 -115 1 -11 7 -22
13 -26 7 -4 13 -20 14 -35 1 -15 8 -32 15 -38 7 -6 13 -22 13 -37 0 -15 4 -31
9 -36 11 -14 41 -109 41 -135 0 -11 7 -37 16 -58 8 -20 15 -55 16 -77 0 -22 5
-43 11 -47 6 -4 12 -35 13 -70 2 -35 6 -79 9 -98 4 -19 10 -64 14 -100 10 -77
7 -673 -3 -689 -9 -15 -17 -84 -18 -161 0 -36 -6 -83 -13 -105 -7 -22 -13 -60
-15 -85 -3 -71 -6 -92 -18 -135 -6 -22 -12 -64 -13 -92 -2 -29 -6 -53 -9 -53
-4 0 -7 -6 -7 -12 -1 -7 -2 -37 -4 -66 -1 -29 -7 -57 -14 -62 -6 -5 -13 -24
-13 -42 -3 -54 -8 -84 -17 -99 -5 -7 -10 -35 -12 -61 -1 -26 -7 -58 -14 -69
-6 -12 -13 -43 -16 -68 -2 -25 -8 -50 -13 -55 -6 -6 -10 -24 -10 -42 0 -17 -7
-48 -15 -67 -8 -20 -15 -51 -15 -70 0 -18 -5 -38 -12 -45 -7 -7 -13 -33 -15
-59 -2 -26 -8 -52 -14 -59 -5 -6 -12 -31 -15 -55 -3 -24 -9 -57 -15 -73 -5
-16 -9 -48 -9 -71 0 -23 -6 -60 -13 -81 -7 -22 -15 -79 -16 -128 -2 -49 -6
-99 -11 -110 -10 -29 -11 -381 0 -436 5 -25 11 -83 15 -129 3 -46 8 -87 10
-92 3 -4 8 -29 10 -56 8 -70 16 -103 24 -103 4 0 6 -13 3 -29 -2 -16 4 -46 14
-66 10 -21 18 -50 19 -64 1 -14 7 -36 13 -48 7 -12 13 -34 14 -48 1 -14 8 -31
15 -37 7 -6 13 -22 13 -37 0 -14 7 -35 15 -45 8 -10 12 -23 9 -28 -3 -5 1 -20
10 -33 9 -13 16 -31 16 -38 0 -8 7 -20 15 -27 8 -7 15 -23 15 -36 0 -13 5 -24
10 -24 6 0 10 -6 10 -12 0 -14 91 -200 101 -208 4 -3 22 -34 40 -70 19 -36 36
-67 39 -70 14 -14 50 -71 50 -80 0 -5 5 -10 10 -10 6 0 10 -5 10 -10 0 -6 5
-16 10 -23 6 -7 38 -50 71 -97 34 -47 67 -90 75 -96 7 -6 11 -13 8 -16 -2 -3
9 -17 26 -31 16 -14 30 -28 30 -31 0 -7 41 -56 83 -99 15 -16 27 -31 27 -35 0
-12 432 -432 445 -432 4 0 68 -55 124 -107 25 -24 49 -43 52 -43 3 0 15 -8 27
-17 47 -41 93 -76 242 -184 148 -108 178 -129 185 -129 4 0 23 -14 42 -30 19
-17 38 -28 44 -25 5 4 9 2 9 -2 0 -5 17 -17 38 -28 38 -20 105 -62 154 -96 15
-11 34 -19 42 -19 7 0 16 -7 20 -15 3 -8 15 -15 26 -15 11 0 20 -4 20 -8 0 -5
19 -17 43 -27 23 -10 48 -24 55 -31 7 -7 19 -11 27 -8 8 4 15 2 15 -3 0 -5 23
-20 50 -33 28 -13 50 -27 50 -32 0 -5 4 -7 9 -4 5 3 19 -3 32 -13 13 -10 27
-19 32 -19 10 -1 275 -128 332 -160 11 -6 49 -24 84 -41 35 -17 70 -36 77 -42
8 -6 14 -9 14 -6 0 3 27 -7 59 -24 33 -16 65 -29 70 -29 6 0 11 -4 11 -9 0 -5
11 -12 25 -15 14 -4 25 -11 25 -16 0 -6 7 -10 15 -10 8 0 34 -11 58 -24 24
-14 64 -36 88 -49 24 -13 53 -28 64 -34 11 -7 27 -14 35 -17 8 -4 29 -14 45
-24 17 -10 57 -34 90 -52 33 -18 76 -44 95 -57 19 -12 38 -23 43 -23 5 0 23
-11 41 -25 18 -14 36 -22 39 -19 4 4 9 -1 13 -10 3 -9 10 -16 15 -16 13 0 173
-101 177 -111 2 -5 10 -9 17 -9 8 0 20 -6 27 -13 7 -6 60 -43 118 -82 155
-103 404 -281 419 -299 8 -9 19 -16 25 -16 6 0 23 -10 38 -23 14 -12 36 -29
48 -37 12 -8 28 -20 34 -25 6 -6 23 -16 38 -22 21 -9 29 -9 38 2 6 7 52 43
104 79 82 58 108 78 153 116 7 5 15 10 19 10 4 0 25 15 48 33 23 18 64 49 91
67 28 19 52 36 55 39 7 8 41 29 60 38 8 4 17 9 20 13 9 12 131 90 141 90 5 0
9 3 9 8 0 4 16 16 35 26 19 11 35 24 35 29 0 6 2 8 5 5 6 -5 126 67 156 94 8
8 21 12 27 10 7 -2 12 1 12 6 0 6 17 19 38 30 63 33 116 64 132 76 8 6 42 25
75 41 33 17 62 33 65 36 3 3 23 14 45 25 22 10 68 35 102 56 35 21 67 38 72
38 6 0 36 15 68 34 32 19 79 42 103 52 25 9 52 23 61 31 9 7 19 10 22 7 4 -4
9 1 13 10 3 9 17 16 29 16 13 0 25 3 27 8 2 4 19 14 38 24 19 9 105 50 190 92
85 42 160 76 167 76 6 0 13 5 15 12 2 6 15 13 29 15 13 2 26 8 27 13 2 6 12
10 23 10 10 0 19 4 19 10 0 5 11 12 25 16 14 3 25 10 25 15 0 5 7 9 15 9 9 0
32 10 53 23 20 12 64 36 97 52 33 16 62 32 65 36 3 3 23 16 45 28 50 26 79 44
85 52 3 4 15 9 28 13 12 4 22 12 22 17 0 5 4 9 9 9 23 0 438 283 510 347 9 8
43 35 76 59 33 25 84 66 114 92 30 26 73 63 95 82 60 52 129 115 220 202 44
43 84 78 90 78 5 0 7 2 4 5 -3 3 27 39 66 79 39 40 89 95 111 122 22 27 52 62
68 77 15 16 27 33 27 38 0 5 4 9 10 9 5 0 17 14 26 32 9 17 29 45 45 62 16 17
29 36 29 43 0 6 3 13 8 15 10 4 72 84 72 93 0 5 11 23 25 41 14 18 25 35 25
38 0 2 18 32 40 65 22 33 40 64 40 70 0 5 6 16 13 23 18 20 47 77 47 93 0 7 7
16 16 19 9 4 14 9 11 13 -4 3 3 22 15 42 13 20 22 38 22 41 -2 7 15 49 32 82
8 14 14 33 14 41 0 9 3 17 7 19 10 4 44 96 47 125 1 13 7 28 14 35 7 7 12 25
12 40 0 15 4 28 9 28 5 0 14 24 19 53 19 95 33 152 42 172 6 11 13 49 16 85
10 91 16 931 8 950 -4 8 -9 43 -10 77 -1 34 -9 74 -17 90 -7 15 -15 46 -16 67
-1 21 -6 47 -11 57 -6 10 -10 30 -10 46 0 15 -7 41 -15 57 -8 15 -15 41 -15
56 0 16 -5 41 -12 57 -6 15 -13 39 -14 53 -4 36 -9 53 -17 67 -4 7 -10 36 -13
65 -3 29 -9 57 -15 63 -5 5 -9 23 -9 40 0 16 -7 52 -15 79 -8 27 -15 65 -15
83 0 19 -5 43 -11 55 -6 11 -13 45 -16 76 -2 31 -8 62 -13 67 -5 6 -11 43 -14
81 -2 38 -9 82 -15 97 -6 16 -11 48 -11 72 0 24 -6 74 -14 112 -8 37 -15 102
-15 144 -1 42 -8 98 -14 125 -17 65 -16 713 1 764 6 19 12 67 14 105 2 39 7
76 11 83 5 6 11 35 14 64 3 29 10 58 14 64 5 6 11 29 13 51 2 22 11 54 20 72
9 17 14 36 11 41 -3 5 1 20 9 33 9 12 17 32 19 42 2 11 9 33 15 48 7 16 12 33
12 38 0 6 7 17 15 25 8 9 15 26 15 39 0 13 5 25 11 27 5 2 12 16 13 31 2 16 8
33 15 40 6 6 11 19 11 30 0 10 7 25 15 33 8 9 15 26 15 39 0 13 5 27 10 30 6
3 10 17 10 31 0 14 5 35 12 47 23 41 20 64 -12 93 -17 16 -71 67 -119 114 -49
47 -153 146 -231 220 -79 74 -171 162 -205 195 -34 33 -124 119 -200 190 -76
72 -147 140 -158 153 l-21 22 -3896 0 -3897 0 -40 -42z"/>
</g>
</svg>
